<svg xmlns="http://www.w3.org/2000/svg" viewBox="0 0 200 120">
  <defs>
    <linearGradient id="g" x1="0" x2="1">
      <stop offset="0" stop-color="#00A1E0" />
      <stop offset="1" stop-color="#1798c1" />
    </linearGradient>
  </defs>
  <g fill="none" fill-rule="evenodd">
    <path d="M38 78c-8-6-12-15-12-24 0-20 20-36 44-36 6 0 12 1 17 3 8-10 23-17 40-17 26 0 47 15 47 34 0 2 0 4-1 6 10 5 16 14 16 24 0 18-19 32-43 32H74c-14 0-31-6-36-12z" fill="url(#g)" />
    <text x="100" y="98" font-family="Segoe UI, Inter, sans-serif" font-size="12" fill="#ffffff" text-anchor="middle">Salesforce</text>
  </g>
</svg>
